<?xml version="1.0" standalone="no"?>
<!DOCTYPE svg PUBLIC "-//W3C//DTD SVG 1.1//EN" "http://www.w3.org/Graphics/SVG/1.1/DTD/svg11.dtd" >
<svg xmlns="http://www.w3.org/2000/svg">
<metadata></metadata>
<defs>
<font id="fontawesomeregular" horiz-adv-x="448" >
<font-face units-per-em="448" ascent="384" descent="-64" />
<missing-glyph horiz-adv-x="500" />
<glyph unicode="&#xd;" />
<glyph unicode="&#x25fc;" horiz-adv-x="500" d="M0 0v0v0v0v0z" />
<glyph unicode="&#xf00f;" horiz-adv-x="0" d="M0 384l448 -448h-448v448z" />
<glyph unicode="&#xf119;" d="M434 -28h-420q-5 0 -10 4q-4 4 -4 10q0 4 4 10q4 2 10 4l13 -2q12 2 20 8q8 11 8 19v367q0 9 8 19q9 6 19 8l281 -2q11 2 20 -7q6 -7 8 -21l-2 -362q2 -13 8 -20q11 -10 20 -8l16 -2q3 2 10 -4q1 -2 4 -10q-3 -3 -4 -9q-7 -3 -10 -5zM164 349q3 4 -5 10q0 2 -9 4l-25 -2 q-9 2 -9 -5q-8 -1 -5 -9l-3 -26q3 -8 4 -9q7 -7 10 -5l30 -2q3 2 10 4q1 6 4 10l-3 29zM166 263q-3 7 -4 9q-7 5 -10 5h-31q-2 0 -10 -4q-1 -4 -4 -10l3 -28q-3 -5 5 -10q0 -4 9 -4h24q10 0 10 5q7 2 4 9l3 27zM162 179q3 4 -4 10q0 2 -10 4l-25 -2q-8 2 -9 -5q-8 0 -5 -9 l-3 -26q3 -7 4 -9q7 -7 10 -5l31 -2q2 2 9 4q1 6 5 10l-4 30h1zM249 345q-4 7 -5 9q-7 6 -9 5l-32 1l-10 -5q0 -4 -4 -9l4 -29q-4 -5 4 -10q0 -3 10 -4l23 1q10 -1 10 4q8 3 4 10l4 26zM244 262q4 3 -4 9q0 2 -10 5l-24 -3q-9 3 -10 -4q-8 -1 -4 -10l-4 -25l5 -10q7 -7 9 -4 l31 -3q2 3 9 4q1 7 5 10l-4 30zM247 175q-4 7 -5 10q-7 5 -9 4l-32 1q-1 -1 -9 -4q-1 -5 -5 -10l4 -29q-4 -4 4 -10q0 -3 10 -4l23 1q10 -1 10 4q8 3 4 10l4 26zM256 78l-80 -2q-9 2 -10 -4q-8 -2 -4 -10l-4 -54q4 -7 5 -10q7 -6 9 -4l87 -2q3 2 10 5q1 5 4 9l-3 57 q3 4 -5 10q0 2 -9 4v1zM329 341q-3 7 -4 10q-7 5 -10 4l-31 1q-2 -1 -10 -4q-1 -5 -4 -10l3 -29q-3 -4 4 -9q0 -4 10 -5l24 1q9 -1 9 5q8 2 5 9l3 26zM325 258q3 4 -5 10q0 2 -9 4l-25 -2q-9 2 -9 -5q-8 -1 -5 -9l-3 -26q3 -8 4 -9q7 -7 10 -5l30 -2q3 2 10 4q1 6 4 10 l-3 29zM327 172q-3 7 -4 9q-7 5 -10 5h-31q-2 0 -10 -4q-1 -4 -4 -10l3 -28q-3 -5 5 -10q0 -4 9 -4h24q10 0 10 5q7 2 4 9l3 27z" />
<glyph unicode="&#xf11a;" d="M392 -28h-336q-23 0 -39 17q-17 15 -17 39v335q0 24 17 40q15 16 39 16h335q24 0 40 -16t16 -40v-336q0 -23 -16 -39q-16 -17 -40 -17zM391 279q0 23 -16 40q-16 15 -40 16q-23 -1 -39 -16q-17 -17 -17 -40t17 -39q16 -18 39 -17q-30 -1 -51 -20q-21 -21 -28 -56 q-32 47 -89 48q33 -1 60 25q22 23 24 59q-2 33 -24 60q-27 22 -60 24q-37 -2 -59 -24q-27 -27 -25 -60q-2 -37 25 -59q22 -27 59 -25q-52 -2 -81 -38q-33 -41 -31 -102q26 -17 51 -22q21 -8 61 -6q37 -2 61 6q21 5 51 22q-2 18 -3 38q21 -12 59 -11q26 -1 46 6q15 3 37 17 q-1 52 -22 84q-25 32 -62 32q21 0 40 16q14 16 16 40z" />
<glyph unicode="&#xf11b;" d="M375 84h-38l-113 -112l1 112h-151q-24 0 -49 25q-24 25 -25 49l1 187q-1 24 24 50q24 24 49 24h300q25 0 49 -24q25 -26 24 -51l1 -186q-1 -25 -24 -49q-26 -26 -49 -26v1zM335 335h-223q-12 0 -20 -8q-9 -8 -8 -20q-1 -11 8 -20q7 -8 20 -8h222q13 0 20 8q10 8 7 20 q3 11 -7 19q-7 8 -21 8zM336 222h-227q-8 0 -20 -8q-5 -8 -8 -20q3 -11 8 -20q11 -8 20 -8h226q10 0 19 8q7 8 8 20q-1 11 -8 20q-9 7 -20 7z" />
<glyph unicode="&#xf11c;" d="M436 -13q-12 -14 -30 -15q-17 1 -30 14q-12 16 -12 34q0 22 12 34l16 25v83q0 -8 -7 -19l-158 -155q-15 -19 -36 -15q-20 -4 -35 14l-141 137q-15 18 -15 35q0 23 14 35l126 127l-1 -45q1 -22 17 -41q16 -14 39 -15q23 1 40 15q15 18 16 40l-1 34l118 -118h22q13 0 20 -9 q8 -8 8 -19v-90l16 -22q12 -15 12 -35t-12 -34zM194 246q-11 0 -19 8q-9 8 -9 19v111q0 12 8 19q9 9 19 9q13 0 21 -9q7 -7 7 -19v-112q0 -11 -7 -20q-8 -8 -21 -8z" />
<glyph unicode="&#xf11d;" d="M417 128l23 -22q8 -9 8 -20q0 -12 -8 -19l-58 -59q-8 -8 -20 -8q-11 0 -19 8l-152 135l-35 -34l6 -7q6 -6 6 -15t-6 -16l-93 -92q-7 -8 -16 -7q-9 -1 -15 6l-31 31q-7 6 -7 15t6 15l94 94q5 4 15 6q8 -2 15 -6l6 -8l23 26q6 4 9 7q3 2 11 6q6 1 15 2q4 -1 11 -3 q3 -5 9 -7l1 -5l147 -125l54 55l-20 24l-19 -16q-5 -8 -19 -8q-9 0 -19 8l-221 223q-10 8 -9 19q-1 12 8 19l56 60q11 7 20 7q14 0 19 -7l226 -224q5 -7 7 -20q-2 -10 -7 -19z" />
<glyph unicode="&#xf11e;" d="M60 -28v392h392v-392h-392v0zM424 336h-336v-280h336v280v0zM172 308q23 0 40 -17q16 -15 16 -39q0 -23 -16 -39q-17 -17 -40 -17t-39 17q-17 15 -17 39v0q0 24 16 39q16 17 40 15v2zM191 161l77 -79l-154 2l1 39l35 37q8 5 20 7q13 -2 20 -8zM304 213q7 9 20 8 q11 0 20 -8l48 -49l1 -84l-88 1l-67 65zM28 25l-27 -2l-1 394l393 -2l-1 -26l-363 -2l-1 -362v0z" />
<glyph unicode="&#xf120;" d="M446 -28h-28q-6 0 -10 4q-5 4 -6 10l-20 97l-168 1l19 -99q2 -4 -3 -9q-2 -4 -9 -5l-27 1q-7 -1 -10 4q-6 3 -6 10l-84 417q-1 8 1 10q4 5 9 4h257q4 0 7 -3q2 -4 3 -8q-1 -1 0 -2v-1l82 -420q2 -5 -2 -9q-2 -5 -9 -5zM258 277q-22 0 -38 8q-19 8 -18 20q-1 11 12 20 q9 8 30 8q19 0 26 -2q4 -2 16 -12q0 -2 4 -7q1 -3 3 -6q2 -1 5 -1q7 0 11 4q4 3 3 10q-6 20 -15 29q-12 7 -41 13v11q0 1 -1 8q-2 2 -5 7q-3 -2 -8 2q-5 -4 -7 -3q-4 -5 -5 -7q-2 -8 -2 -9v-10q-31 -6 -43 -15q-13 -14 -13 -41q0 -33 23 -43q22 -16 61 -13q20 -3 39 -8 q15 -12 17 -20q-2 -14 -11 -20q-13 -11 -31 -8q-23 -3 -26 1q-8 0 -16 13q-4 -1 -4 5q-4 2 -4 5q-5 1 -6 2q-8 -1 -11 -4q-6 -6 -3 -10q3 -23 15 -31q9 -8 41 -11q-3 -9 0 -11q-2 -5 1 -8q-1 -6 5 -7q0 -3 8 -2q1 -1 7 2q0 1 5 6q-2 5 2 8q-4 4 0 10q27 5 43 15q8 11 13 41 q-5 29 -23 43q-27 12 -61 13zM75 75l-15 -97q-6 -6 -6 -9q-9 -6 -11 -5l-32 -1q-1 1 -9 5q1 4 -2 9l74 351l45 -253l-39 -1zM292 47l-8 -71q-7 -4 -7 -9q-10 -4 -10 -5l-18 1l-11 69l-2 15l61 -1z" />
<glyph unicode="&#xf121;" d="M392 -28h-335q-12 0 -20 8q-9 8 -8 20l-1 390q1 13 8 20q9 9 20 8h196v-112h-154q-5 0 -10 -3q-4 -5 -4 -11v-28q0 -5 4 -9q4 -5 10 -5h320l1 -252q-1 -11 -9 -20q-8 -8 -19 -8zM376 180q0 6 -4 10t-10 3l-266 1q-5 -1 -9 -3q-5 -5 -5 -11v-29q0 -4 5 -9q3 -4 9 -5l265 1 q7 -1 10 5q4 2 4 9v27zM375 69q0 4 -5 10q-3 2 -9 3l-266 -1q-6 0 -10 -5q-4 -3 -4 -9v-28q0 -7 4 -10q3 -4 10 -4h265q6 0 9 3q4 4 4 10v27zM275 415q11 -1 19 -8l112 -113q8 -8 8 -20h-140v140z" />
<glyph unicode="&#xf122;" d="M161 331q5 0 14 -17l-103 -89h343q7 -1 7 -7v-7q0 -7 -7 -7h-343l103 -89q-9 -17 -14 -17l-130 110v13z" />
<glyph unicode="&#xf123;" horiz-adv-x="416" d="M91 249v-181h41v119h20h116h19v-119h42v180l24 -20v-190h-5v10h-80v121h-116v-121h-80v-10h-5v190zM208 364l-195 -154l23 -4l172 132l174 -130l23 3z" />
<glyph unicode="&#xf124;" d="M224 -28q-45 0 -87 18q-42 17 -71 48q-30 29 -48 71q-18 41 -18 86q0 46 18 87q17 42 48 71q29 30 71 48q41 17 86 17q46 0 87 -17q42 -18 71 -48q30 -30 48 -71q17 -42 17 -88q0 -45 -17 -86q-18 -42 -48 -72t-71 -48q-42 -18 -88 -18zM222 362q-45 0 -84 -22 q-38 -22 -61 -62q-23 -38 -23 -84q0 -45 23 -84q22 -38 61 -61q38 -23 84 -23q45 0 84 23q38 22 62 61q21 38 22 84q-1 45 -22 84q-24 38 -62 62q-40 21 -84 22v0zM297 172q-2 -2 -13 -7l-75 -75q-9 -9 -17 -8q-13 -1 -19 7q-9 6 -8 18q-1 9 7 17l68 69l-68 69q-8 7 -7 17 q-1 10 7 18q6 6 17 7q9 -1 18 -8l76 -79q8 -1 11 -6q10 -7 7 -21q3 -11 -7 -20z" />
<glyph unicode="&#xf125;" d="M224 -28q-45 0 -87 18q-42 17 -71 48q-30 29 -48 71q-18 41 -18 86q0 46 18 87q17 42 48 71q29 30 71 48q41 17 86 17q46 0 87 -17q42 -18 71 -48q30 -30 48 -71q17 -42 17 -88q0 -45 -17 -86q-18 -42 -48 -72t-71 -48q-42 -18 -88 -18zM222 362q-45 0 -84 -22 q-38 -22 -61 -62q-23 -38 -23 -84q0 -45 23 -84q22 -38 61 -61q38 -23 84 -23q45 0 84 23q38 22 62 61q21 38 22 84q-1 45 -22 84q-24 38 -62 62q-40 21 -84 22v0zM290 144l-68 70l-70 -70q-6 -7 -18 -7q-9 0 -18 7q-6 7 -7 17q1 10 7 18l79 76q0 8 6 11q6 10 20 7 q11 3 21 -7q2 -3 7 -12l75 -76q9 -9 8 -18q1 -12 -8 -18q-6 -9 -18 -8q-9 -1 -18 7z" />
<glyph unicode="&#xf126;" d="M224 -28q-45 0 -87 18q-42 17 -71 48q-30 29 -48 71q-18 41 -18 86q0 46 18 87q17 42 48 71q29 30 71 48q41 17 86 17q46 0 87 -17q42 -18 71 -48q30 -30 48 -71q17 -42 17 -88q0 -45 -17 -86q-18 -42 -48 -72t-71 -48q-42 -18 -88 -18zM222 362q-45 0 -84 -22 q-38 -22 -61 -62q-23 -38 -23 -84q0 -45 23 -84q22 -38 61 -61q38 -23 84 -23q45 0 84 23q38 22 62 61q21 38 22 84q-1 45 -22 84q-24 38 -62 62q-40 21 -84 22v0zM248 128q0 -5 -6 -12q-7 -7 -21 -7q-11 0 -21 7q-2 6 -7 11l-75 80q-9 4 -8 17q-1 7 7 18q6 3 18 7 q9 -4 17 -8l69 -73l69 73q7 3 17 7q10 -4 18 -8q6 -11 7 -18q-1 -14 -8 -18z" />
<glyph unicode="&#xf127;" d="M224 -28q-45 0 -87 18q-42 17 -71 48q-30 29 -48 71q-18 41 -18 86q0 46 18 87q17 42 48 71q29 30 71 48q41 17 86 17q46 0 87 -17q42 -18 71 -48q30 -30 48 -71q17 -42 17 -88q0 -45 -17 -86q-18 -42 -48 -72t-71 -48q-42 -18 -88 -18zM222 362q-45 0 -84 -22 q-38 -22 -61 -62q-23 -38 -23 -84q0 -45 23 -84q22 -38 61 -61q38 -23 84 -23q45 0 84 23q38 22 62 61q21 38 22 84q-1 45 -22 84q-24 38 -62 62q-40 21 -84 22v0zM270 88q-6 -6 -18 -7q-9 1 -18 7l-76 79q-9 0 -12 6q-10 6 -8 20q-2 11 6 21q4 2 12 7l77 75q8 9 17 8 q11 1 18 -8q7 -6 7 -18q0 -9 -8 -18l-68 -68l68 -69q7 -7 7 -19q0 -9 -8 -17z" />
<glyph unicode="&#xf128;" d="M407 56h-14v-84l-84 84h-182q-23 0 -36 20l64 64h168q29 0 49 20q21 21 20 49l1 99l13 -1q18 1 30 -12q13 -11 12 -30l1 -167q-1 -18 -12 -30q-13 -13 -30 -12v0zM322 167l-181 1l-85 -85l1 85l-15 -1q-17 1 -30 12q-11 14 -12 30l1 169q-1 17 12 30q12 11 30 12l279 -1 q18 1 30 -12q13 -11 12 -30l1 -167q-1 -18 -12 -30q-13 -13 -30 -12z" />
<glyph unicode="&#xf129;" d="M145 293l-38 -37q7 -29 41 -70q32 -43 75 -76q40 -35 71 -42l36 37q9 8 23 5q19 0 33 -5q19 -3 28 -10q26 -10 36 -28q13 -17 1 -28l-45 -45q-20 -20 -51 -22q-34 -3 -70 10q-39 11 -79 39q-44 25 -81 65q-39 36 -66 80q-28 40 -39 80q-14 35 -10 70q0 29 21 51l45 43 q11 13 24 -3q17 -6 31 -35q12 -7 12 -42q9 -26 -3 -42z" />
<glyph unicode="&#xf12a;" d="M376 123l-119 -151l-119 150q-31 34 -44 78q-11 45 0 89q12 45 44 79q24 24 56 37q30 12 63 13q30 -1 63 -13q29 -13 56 -37q29 -35 44 -79q8 -46 0 -89q-15 -46 -44 -78v1zM254 361q-43 0 -79 -34q-30 -31 -33 -78q3 -46 32 -80q37 -32 79 -32q51 0 79 32q36 33 34 79 q1 46 -34 78q-30 33 -79 33zM255 191q-25 0 -41 16t-16 40q0 22 15 39q17 15 40 17q23 -2 39 -17q17 -17 17 -39q0 -25 -17 -40q-16 -18 -39 -16h2z" />
<glyph unicode="&#xf12b;" d="M424 168h-224q-12 0 -21 8q-7 9 -7 19q0 12 7 20q8 8 21 8h223q12 0 20 -8t8 -20q0 -11 -8 -19q-8 -9 -20 -9zM423 335h-224q-12 0 -20 8q-8 9 -8 19q0 13 8 20q7 8 20 8h223q12 0 20 -8q8 -7 8 -20q0 -11 -8 -19q-8 -9 -20 -9zM58 -30q-23 0 -40 17q-16 16 -16 39 q0 22 16 40q16 15 40 16q22 -1 39 -16q15 -18 17 -40q-2 -24 -17 -39q-17 -18 -39 -17v0zM56 137q-21 1 -39 16q-15 18 -17 40q2 23 17 39q17 17 39 17q24 0 39 -17q17 -16 17 -39t-17 -40q-15 -16 -39 -16v0zM56 305q-23 0 -39 16q-17 16 -17 40q0 21 17 39q15 15 39 17 q22 -2 39 -17q15 -18 17 -39q-2 -25 -17 -40q-17 -18 -39 -16v0zM194 51l226 2q10 -2 20 -8q5 -10 8 -20q-3 -14 -8 -21q-10 -9 -20 -7l-227 -2q-8 2 -20 8q-5 9 -8 20q3 12 8 20q11 8 20 8h1z" />
<glyph unicode="&#xf12c;" d="M224 -28q-45 0 -87 18q-42 17 -71 48q-30 29 -48 71q-18 41 -18 86q0 46 18 87q17 42 48 71q29 30 71 48q41 17 86 17q46 0 87 -17q42 -18 71 -48q30 -30 48 -71q17 -42 17 -88q0 -45 -17 -86q-18 -42 -48 -72t-71 -48q-42 -18 -88 -18zM222 390q-39 0 -76 -15 q-36 -15 -62 -42q-26 -26 -42 -63q-16 -35 -16 -76q0 -39 16 -76q15 -36 41 -62t62 -42q35 -16 76 -16q38 0 77 16q33 15 62 41q22 26 41 62q12 35 16 76q-4 38 -16 77q-19 33 -41 62q-30 22 -63 41q-40 12 -76 16z" />
<glyph unicode="&#xf12d;" d="M224 -28q-60 0 -112 30t-82 81t-30 112q0 60 30 112q30 50 81 82q51 28 112 29q60 -1 112 -29q50 -32 82 -82q28 -53 29 -113q-1 -62 -29 -112q-32 -53 -82 -82q-53 -31 -113 -30zM356 267l-16 21q-7 2 -11 3q-8 -1 -10 -3l-134 -134l-60 63q-7 3 -9 4q-9 -1 -10 -4 l-22 -20q-2 -4 -4 -10q2 -5 3 -10l69 -65q-2 -6 3 -8l17 -20q7 -4 11 -4q10 0 11 2l22 21q0 1 3 7l134 135q6 5 3 9q3 8 -3 9z" />
<glyph unicode="&#xf12e;" d="M224 -28q-45 0 -87 18q-42 17 -71 48q-30 29 -48 71q-18 41 -18 86q0 46 18 87q17 42 48 71q29 30 71 48q41 17 86 17q46 0 87 -17q42 -18 71 -48q30 -30 48 -71q17 -42 17 -88q0 -45 -17 -86q-18 -42 -48 -72t-71 -48q-42 -18 -88 -18zM222 362q-45 0 -84 -22 q-38 -22 -61 -62q-23 -38 -23 -84q0 -45 23 -84q22 -38 61 -61q38 -23 84 -23q45 0 84 23q38 22 62 61q21 38 22 84q-1 45 -22 84q-24 38 -62 62q-40 21 -84 22v0zM297 116q-6 -6 -19 -7q-8 1 -17 7l-39 42l-43 -42q-5 -7 -18 -8q-8 1 -18 7q-5 9 -7 17q1 13 7 18l42 43 l-42 38q-6 10 -7 18q0 12 7 17q7 9 17 8q10 0 18 -8l39 -41l42 41q6 7 18 7q9 0 17 -8q7 -7 7 -17q0 -11 -7 -19l-41 -40l40 -41q8 -8 7 -18q1 -11 -7 -18z" />
<glyph unicode="&#xf130;" horiz-adv-x="288" d="M288 208v-32q0 -55 -37 -96t-91 -47v-33h64q6 0 11 -5t5 -11t-5 -11t-11 -5h-160q-6 0 -11 5t-5 11t5 11t11 5h64v33q-54 6 -91 47t-37 96v32q0 6 5 11t11 5t11 -5t5 -11v-32q0 -46 33 -79t79 -33t79 33t33 79v32q0 6 5 11t11 5t11 -5t5 -11zM224 304v-128 q0 -33 -23.5 -56.5t-56.5 -23.5t-56.5 23.5t-23.5 56.5v128q0 33 23.5 56.5t56.5 23.5t56.5 -23.5t23.5 -56.5z" />
<glyph unicode="&#xf131;" horiz-adv-x="352" d="M68 148l-26 -26q-10 26 -10 54v32q0 6 5 11t11 5t11 -5t5 -11v-32q0 -13 4 -28zM346 298l-90 -90v-32q0 -33 -23.5 -56.5t-56.5 -23.5q-14 0 -27 5l-24 -24q24 -13 51 -13q46 0 79 33t33 79v32q0 6 5 11t11 5t11 -5t5 -11v-32q0 -55 -37 -96t-91 -47v-33h64q6 0 11 -5 t5 -11t-5 -11t-11 -5h-160q-6 0 -11 5t-5 11t5 11t11 5h64v33q-31 3 -59 20l-63 -63q-3 -3 -6 -3t-6 3l-20 20q-3 3 -3 6t3 6l308 308q3 3 6 3t6 -3l20 -20q3 -3 3 -6t-3 -6zM251 331l-155 -155v128q0 33 23.5 56.5t56.5 23.5q26 0 46.5 -15t28.5 -38z" />
<glyph unicode="&#xf132;" horiz-adv-x="320" d="M272 144v160h-112v-284q30 16 53 34q59 46 59 90zM320 336v-192q0 -22 -8.5 -43t-21 -37t-29.5 -32t-31.5 -26t-30 -19t-22.5 -12.5t-11 -4.5q-2 -2 -6 -2t-6 2q-4 1 -11 4.5t-22.5 12.5t-30 19t-31.5 26t-29.5 32t-21 37t-8.5 43v192q0 6 5 11t11 5h288q6 0 11 -5t5 -11 z" />
<glyph unicode="&#xf133;" horiz-adv-x="416" d="M32 -32h352v256h-352v-256zM128 272v72q0 4 -2 6t-6 2h-16q-4 0 -6 -2t-2 -6v-72q0 -4 2 -6t6 -2h16q4 0 6 2t2 6zM320 272v72q0 4 -2 6t-6 2h-16q-4 0 -6 -2t-2 -6v-72q0 -4 2 -6t6 -2h16q4 0 6 2t2 6zM416 288v-320q0 -13 -9.5 -22.5t-22.5 -9.5h-352q-13 0 -22.5 9.5 t-9.5 22.5v320q0 13 9.5 22.5t22.5 9.5h32v24q0 16 12 28t28 12h16q16 0 28 -12t12 -28v-24h96v24q0 16 12 28t28 12h16q16 0 28 -12t12 -28v-24h32q13 0 22.5 -9.5t9.5 -22.5z" />
<glyph unicode="&#xf134;" horiz-adv-x="352" d="M131 336q0 6 -5 11t-11 5t-11 -5t-5 -11t5 -11t11 -5t11 5t5 11zM355 344v-80q0 -4 -3 -6q-2 -2 -5 -2h-2l-112 24q-2 1 -4 3t-2 5h-64v-26q28 -5 46 -27t18 -51v-200q0 -6 -5 -11t-11 -5h-128q-6 0 -11 5t-5 11v200q0 26 15.5 47.5t40.5 28.5v28h-8q-15 0 -29 -6 t-22.5 -13t-16.5 -16.5t-10.5 -13.5t-3.5 -6q-4 -9 -14 -9q-4 0 -7 2q-6 3 -8 9t1 12q1 3 3.5 7t9.5 13t15 17.5t21 17t27 12.5q-6 11 -6 22q0 16 12 28t28 12t28 -12t12 -28q0 -8 -4 -16h76q0 3 2 5t4 3l112 24h2q3 0 5 -2q3 -2 3 -6z" />
<glyph unicode="&#xf135;" horiz-adv-x="416" d="M366 272q0 10 -7 17t-17 7t-17 -7t-7 -17t7 -17t17 -7t17 7t7 17zM422 344q0 -62 -19 -107.5t-63 -90.5q-20 -20 -49 -44l-5 -94q0 -4 -4 -7l-96 -56q-2 -1 -4 -1q-3 0 -6 2l-16 16q-3 4 -2 8l22 69l-71 71l-69 -22h-2q-4 0 -6 2l-16 16q-4 5 -1 10l56 96q3 4 7 4l94 5 q24 29 44 49q47 46 89.5 64t108.5 18q3 0 5.5 -2.5t2.5 -5.5z" />
<glyph unicode="&#xf136;" d="M427 220l-47 -220h-76l45 212q1 6 1 11q-2 5 -4 9q-3 3 -8 6q-4 2 -10 2h-49l-51 -240h-76l51 240h-76l-51 -240h-76l68 320h285q39 0 61 -30q22 -28 13 -70z" />
<glyph unicode="&#xf137;" horiz-adv-x="384" d="M227 35l26 26q5 5 5 11t-5 11l-77 77l77 77q5 5 5 11t-5 11l-26 26q-5 5 -11 5t-11 -5l-114 -114q-5 -5 -5 -11t5 -11l114 -114q5 -5 11 -5t11 5zM384 160q0 -52 -26 -96t-70 -70t-96 -26t-96 26t-70 70t-26 96t26 96t70 70t96 26t96 -26t70 -70t26 -96z" />
<glyph unicode="&#xf138;" horiz-adv-x="384" d="M179 35l114 114q5 5 5 11t-5 11l-114 114q-5 5 -11 5t-11 -5l-26 -26q-5 -5 -5 -11t5 -11l77 -77l-77 -77q-5 -5 -5 -11t5 -11l26 -26q5 -5 11 -5t11 5zM384 160q0 -52 -26 -96t-70 -70t-96 -26t-96 26t-70 70t-26 96t26 96t70 70t96 26t96 -26t70 -70t26 -96z" />
<glyph unicode="&#xf139;" horiz-adv-x="384" d="M291 99l26 26q5 5 5 11t-5 11l-114 114q-5 5 -11 5t-11 -5l-114 -114q-5 -5 -5 -11t5 -11l26 -26q5 -5 11 -5t11 5l77 77l77 -77q5 -5 11 -5t11 5zM384 160q0 -52 -26 -96t-70 -70t-96 -26t-96 26t-70 70t-26 96t26 96t70 70t96 26t96 -26t70 -70t26 -96z" />
<glyph unicode="&#xf13a;" horiz-adv-x="384" d="M203 59l114 114q5 5 5 11t-5 11l-26 26q-5 5 -11 5t-11 -5l-77 -77l-77 77q-5 5 -11 5t-11 -5l-26 -26q-5 -5 -5 -11t5 -11l114 -114q5 -5 11 -5t11 5zM384 160q0 -52 -26 -96t-70 -70t-96 -26t-96 26t-70 70t-26 96t26 96t70 70t96 26t96 -26t70 -70t26 -96z" />
<glyph unicode="&#xf13b;" d="M448 420v-168l-60 60l-93 -92l-47 47l92 93l-60 60h168zM108 360l92 -93l-47 -47l-93 92l-60 -60v168h168zM388 80l60 60v-168h-168l60 60l-92 93l47 47zM200 125l-92 -93l60 -60h-168v168l60 -60l93 92z" />
<glyph unicode="&#xf13c;" d="M28 168h168v-168l-60 60l-89 -88l-47 47l88 89zM360 108l88 -89l-47 -47l-89 88l-60 -60v168h168zM420 224h-168v168l60 -60l89 88l47 -47l-88 -89zM136 332l60 60v-168h-168l60 60l-88 89l47 47z" />
<glyph unicode="&#xf13d;" d="M240 320q0 6 -5 11t-11 5t-11 -5t-5 -11t5 -11t11 -5t11 5t5 11zM448 88v-88q0 -6 -5 -8h-3q-3 0 -6 2l-23 24q-30 -36 -79.5 -57t-107.5 -21t-107.5 21t-79.5 57l-23 -24q-2 -2 -6 -2h-3q-5 2 -5 8v88q0 4 2 6t6 2h88q6 0 8 -5t-2 -9l-25 -25q17 -23 47.5 -38.5 t67.5 -20.5v162h-48q-6 0 -11 5t-5 11v32q0 6 5 11t11 5h48v41q-14 8 -23 22.5t-9 32.5q0 26 19 45t45 19t45 -19t19 -45q0 -18 -9 -32.5t-23 -22.5v-41h48q6 0 11 -5t5 -11v-32q0 -6 -5 -11t-11 -5h-48v-162q37 5 67.5 20.5t47.5 38.5l-25 25q-4 4 -2 9t8 5h88q4 0 6 -2 t2 -6z" />
<glyph unicode="&#xf13e;" horiz-adv-x="288" d="M264 192q10 0 17 -7t7 -17v-144q0 -10 -7 -17t-17 -7h-240q-10 0 -17 7t-7 17v144q0 10 7 17t17 7h8v80q0 46 33 79t79 33t79 -33t33 -79q0 -6 -5 -11t-11 -5h-16q-6 0 -11 5t-5 11q0 26 -19 45t-45 19t-45 -19t-19 -45v-80h184z" />
<glyph unicode="&#xf140;" horiz-adv-x="384" d="M256 160q0 -26 -19 -45t-45 -19t-45 19t-19 45t19 45t45 19t45 -19t19 -45zM288 160q0 40 -28 68t-68 28t-68 -28t-28 -68t28 -68t68 -28t68 28t28 68zM320 160q0 -53 -37.5 -90.5t-90.5 -37.5t-90.5 37.5t-37.5 90.5t37.5 90.5t90.5 37.5t90.5 -37.5t37.5 -90.5z M352 160q0 32 -13 62t-34 51t-51 34t-62 13t-62 -13t-51 -34t-34 -51t-13 -62t13 -62t34 -51t51 -34t62 -13t62 13t51 34t34 51t13 62zM384 160q0 -52 -26 -96t-70 -70t-96 -26t-96 26t-70 70t-26 96t26 96t70 70t96 26t96 -26t70 -70t26 -96z" />
<glyph unicode="&#xf141;" horiz-adv-x="352" d="M96 200v-48q0 -10 -7 -17t-17 -7h-48q-10 0 -17 7t-7 17v48q0 10 7 17t17 7h48q10 0 17 -7t7 -17zM224 200v-48q0 -10 -7 -17t-17 -7h-48q-10 0 -17 7t-7 17v48q0 10 7 17t17 7h48q10 0 17 -7t7 -17zM352 200v-48q0 -10 -7 -17t-17 -7h-48q-10 0 -17 7t-7 17v48 q0 10 7 17t17 7h48q10 0 17 -7t7 -17z" />
<glyph unicode="&#xf142;" horiz-adv-x="96" d="M96 72v-48q0 -10 -7 -17t-17 -7h-48q-10 0 -17 7t-7 17v48q0 10 7 17t17 7h48q10 0 17 -7t7 -17zM96 200v-48q0 -10 -7 -17t-17 -7h-48q-10 0 -17 7t-7 17v48q0 10 7 17t17 7h48q10 0 17 -7t7 -17zM96 328v-48q0 -10 -7 -17t-17 -7h-48q-10 0 -17 7t-7 17v48q0 10 7 17 t17 7h48q10 0 17 -7t7 -17z" />
<glyph unicode="&#xf143;" horiz-adv-x="384" d="M128 64q0 13 -9.5 22.5t-22.5 9.5t-22.5 -9.5t-9.5 -22.5t9.5 -22.5t22.5 -9.5t22.5 9.5t9.5 22.5zM216 40q-4 58 -45 99t-99 45q-3 0 -5.5 -2.5t-2.5 -5.5v-32q0 -4 2 -6t6 -2q38 -3 65.5 -30.5t30.5 -65.5q0 -4 2 -6t6 -2h32q3 0 5.5 2.5t2.5 5.5zM312 40 q-2 39 -14.5 74.5t-34.5 65t-51.5 51.5t-65 34.5t-74.5 14.5q-3 0 -6 -2q-2 -3 -2 -6v-32q0 -4 2 -6t6 -2q51 -2 94.5 -28t69.5 -69.5t28 -94.5q0 -4 2 -6t6 -2h32q3 0 6 2q2 3 2 6zM384 280v-240q0 -30 -21 -51t-51 -21h-240q-30 0 -51 21t-21 51v240q0 30 21 51t51 21h240 q30 0 51 -21t21 -51z" />
<glyph unicode="&#xf144;" horiz-adv-x="384" d="M192 352q52 0 96 -26t70 -70t26 -96t-26 -96t-70 -70t-96 -26t-96 26t-70 70t-26 96t26 96t70 70t96 26zM288 146q8 5 8 14t-8 14l-136 80q-8 4 -16 0q-8 -5 -8 -14v-160q0 -9 8 -14q4 -2 8 -2t8 2z" />
<glyph unicode="&#xf145;" d="M255 271l79 -79l-143 -143l-79 79zM202 26l155 155q4 5 4 11t-4 11l-91 91q-4 4 -11 4t-11 -4l-155 -155q-4 -5 -4 -11t4 -11l91 -91q4 -4 11 -4t11 4zM425 186l-227 -228q-9 -9 -22.5 -9t-22.5 9l-32 32q14 14 14 34t-14 34t-34 14t-34 -14l-31 32q-9 9 -9 22.5t9 22.5 l227 226q9 9 22.5 9t22.5 -9l31 -31q-14 -14 -14 -34t14 -34t34 -14t34 14l32 -31q9 -9 9 -22.5t-9 -22.5z" />
<glyph unicode="&#xf146;" horiz-adv-x="384" d="M320 144v32q0 6 -5 11t-11 5h-224q-6 0 -11 -5t-5 -11v-32q0 -6 5 -11t11 -5h224q6 0 11 5t5 11zM384 280v-240q0 -30 -21 -51t-51 -21h-240q-30 0 -51 21t-21 51v240q0 30 21 51t51 21h240q30 0 51 -21t21 -51z" />
<glyph unicode="&#xf147;" horiz-adv-x="352" d="M288 184v-16q0 -4 -2 -6t-6 -2h-208q-4 0 -6 2t-2 6v16q0 4 2 6t6 2h208q4 0 6 -2t2 -6zM320 72v208q0 16 -12 28t-28 12h-208q-16 0 -28 -12t-12 -28v-208q0 -16 12 -28t28 -12h208q16 0 28 12t12 28zM352 280v-208q0 -30 -21 -51t-51 -21h-208q-30 0 -51 21t-21 51v208 q0 30 21 51t51 21h208q30 0 51 -21t21 -51z" />
<glyph unicode="&#xf148;" horiz-adv-x="256" d="M257 233q-4 -9 -14 -9h-48v-216q0 -4 -2 -6t-6 -2h-176q-5 0 -7 4q-2 6 1 9l40 48q2 3 6 3h80v160h-48q-10 0 -14 9q-5 9 2 17l80 96q4 6 12 6t12 -6l80 -96q7 -8 2 -17z" />
<glyph unicode="&#xf149;" horiz-adv-x="256" d="M13 320h176q3 0 5.5 -2.5t2.5 -5.5v-216h48q10 0 14.5 -9t-2.5 -17l-80 -96q-4 -6 -12 -6t-12 6l-80 96q-7 7 -2 17q4 9 14 9h48v160h-80q-4 0 -6 3l-40 48q-4 3 -1 8q2 5 7 5z" />
</font>
</defs>
</svg>
